<svg preserveAspectRatio="none" width="100%" height="100%" overflow="visible" style="display: block;" viewBox="0 0 44.7917 38.5417" fill="none" xmlns="http://www.w3.org/2000/svg">
<g id="email">
<path id="Subtract" fill-rule="evenodd" clip-rule="evenodd" d="M11.9792 0C8.61465 0 5.57219 0.840896 3.36387 2.89146C1.13463 4.9615 0 8.03552 0 11.9792V26.5625C0 30.5062 1.13463 33.5802 3.36387 35.6502C5.57219 37.7008 8.61465 38.5417 11.9792 38.5417H32.8125C36.1771 38.5417 39.2196 37.7008 41.4277 35.6502C43.6571 33.5802 44.7917 30.5062 44.7917 26.5625V11.9792C44.7917 8.03552 43.6571 4.9615 41.4277 2.89146C39.2196 0.840896 36.1771 0 32.8125 0H11.9792ZM37.4552 11.6923C38.1379 11.1647 38.2637 10.1834 37.736 9.50054C37.2085 8.81769 36.2273 8.69188 35.5444 9.21952L23.9879 18.1492C23.0502 18.874 21.7413 18.874 20.8033 18.1492L9.24708 9.21952C8.56423 8.69188 7.58296 8.81769 7.05531 9.50054C6.52767 10.1834 6.65348 11.1647 7.33633 11.6923L18.8927 20.6221C20.956 22.2162 23.8354 22.2162 25.8987 20.6221L37.4552 11.6923Z" fill="var(--fill-0, #FFFDED)"/>
</g>
</svg>
