<svg preserveAspectRatio="none" width="100%" height="100%" overflow="visible" style="display: block;" viewBox="0 0 50 50" fill="none" xmlns="http://www.w3.org/2000/svg">
<g id="phone_call_fill">
<g id="MingCute">
</g>
<path id="&#229;&#189;&#162;&#231;&#138;&#182;" d="M14.286 5.09352C16.6652 6.82897 18.5191 9.199 20.1042 11.4649L21.0251 12.8061L21.8938 14.0868C22.7863 15.3924 22.5731 17.175 21.3606 18.2244L17.2958 21.2431C16.8929 21.5425 16.7589 22.0863 17.0006 22.526C17.9203 24.2002 19.5587 26.6915 21.4338 28.5665C23.3106 30.4433 25.9196 32.1875 27.7088 33.2108C28.1727 33.476 28.7563 33.3225 29.0496 32.8756L31.694 28.8475C32.7081 27.4981 34.6017 27.2033 35.9781 28.156L37.361 29.1116C39.9412 30.9032 42.7162 32.9387 44.8354 35.6527C45.5471 36.564 45.6527 37.7556 45.2283 38.746C43.485 42.814 39.0733 46.2783 34.4842 46.1094L33.8581 46.0746L33.3728 46.0327L32.8357 45.9725L32.2491 45.8912L31.6152 45.7857C31.5057 45.766 31.3943 45.7451 31.2811 45.723L30.5803 45.576C30.46 45.549 30.3379 45.5206 30.2141 45.4909L29.4515 45.2958L28.6504 45.065L27.813 44.7957C23.9665 43.4925 19.0856 40.9302 14.0778 35.9223C9.06993 30.9144 6.50761 26.0335 5.20446 22.1871L4.93511 21.3497L4.70433 20.5486L4.50921 19.7859L4.34687 19.064C4.29789 18.8304 4.2539 18.6039 4.21441 18.3849L4.10893 17.751L4.02756 17.1644L3.96738 16.6274L3.92551 16.1421L3.89071 15.516C3.7224 10.9421 7.22615 6.49796 11.2753 4.76261C12.2255 4.3554 13.3763 4.42992 14.286 5.09352ZM31.2327 12.5823L31.4744 12.6107C32.9908 12.8781 34.3838 13.6187 35.4535 14.7264C36.5231 15.8341 37.2146 17.2519 37.429 18.7768C37.5892 19.9162 36.7952 20.9696 35.6558 21.1298C34.5978 21.2786 33.6139 20.6046 33.3506 19.5953L33.3029 19.3567C33.211 18.7032 32.9146 18.0955 32.4563 17.6208C32.0741 17.2252 31.5959 16.9389 31.071 16.7881L30.7508 16.7141C29.6179 16.5143 28.8612 15.4338 29.061 14.3006C29.2466 13.2485 30.1916 12.5209 31.2327 12.5823ZM31.25 6.24998C32.8915 6.24998 34.5171 6.57329 36.0335 7.20148C37.5502 7.82967 38.9281 8.75042 40.089 9.91115C41.2496 11.0719 42.1704 12.4499 42.7985 13.9664C43.4267 15.483 43.75 17.1085 43.75 18.75C43.75 19.9006 42.8173 20.8333 41.6667 20.8333C40.5982 20.8333 39.7177 20.0291 39.5973 18.9929L39.5833 18.75C39.5833 17.6556 39.3679 16.572 38.949 15.561C38.5302 14.5499 37.9165 13.6313 37.1425 12.8574C36.3687 12.0836 35.4502 11.4698 34.439 11.051C33.5964 10.702 32.7035 10.4941 31.796 10.4346L31.25 10.4166C30.0994 10.4166 29.1667 9.4839 29.1667 8.33331C29.1667 7.18273 30.0994 6.24998 31.25 6.24998Z" fill="var(--fill-0, #FFFDED)"/>
</g>
</svg>
