<svg preserveAspectRatio="none" width="100%" height="100%" overflow="visible" style="display: block;" viewBox="0 0 50 50" fill="none" xmlns="http://www.w3.org/2000/svg">
<g id="Frame 32">
<path id="Subtract" d="M37 0C43.2353 7.2974e-07 50 6.73581 50 13V37C50 43.2642 43.2353 49.9999 37 50H13C6.76468 50 0 43.2642 0 37V13C0 6.73581 6.76468 0 13 0H37ZM13.498 14.5547L22.1943 25.9805L13.9521 35.4443H17.4814L23.8438 28.1426L29.4033 35.4443H36.502L27.4365 23.4033L35.1426 14.5547H31.6152L25.8018 21.2295L20.7764 14.5547H13.498ZM19.7148 16.5645L32.332 33.3232H30.377L17.6172 16.5645H19.7148Z" fill="var(--fill-0, #FFFDED)"/>
</g>
</svg>
